<?xml version="1.0" standalone="no"?>
<!DOCTYPE svg PUBLIC "-//W3C//DTD SVG 20010904//EN"
 "http://www.w3.org/TR/2001/REC-SVG-20010904/DTD/svg10.dtd">
<svg version="1.0" xmlns="http://www.w3.org/2000/svg"
 width="1946.000000pt" height="1296.000000pt" viewBox="0 0 1946.000000 1296.000000"
 preserveAspectRatio="xMidYMid meet">

<g transform="translate(0.000000,1296.000000) scale(0.100000,-0.100000)"
fill="#000000" stroke="none">
<path d="M9395 11294 c-783 -61 -1527 -298 -2185 -696 -538 -326 -1047 -801
-1427 -1332 -71 -99 -87 -125 -226 -355 -95 -158 -243 -458 -312 -631 -264
-666 -371 -1296 -343 -2018 38 -994 393 -1964 1006 -2749 l56 -72 23 101 c32
144 48 195 104 338 103 258 253 517 409 705 36 44 87 110 113 146 41 59 50 67
85 72 52 6 133 48 193 98 27 22 88 62 137 88 48 27 108 63 133 81 24 17 89 61
144 97 55 36 116 80 135 98 19 18 62 47 95 63 33 17 80 45 105 61 25 17 51 31
58 31 16 0 123 54 171 86 20 13 80 41 133 63 124 50 196 98 279 183 36 37 69
68 74 68 4 0 1 -8 -8 -18 -9 -10 -23 -43 -31 -74 -17 -65 -7 -206 21 -313 19
-69 106 -206 156 -246 74 -59 250 -158 353 -198 180 -71 542 -141 729 -141
192 0 571 101 812 216 60 29 83 47 136 110 78 93 180 267 214 366 58 171 66
270 28 362 -26 64 -26 78 2 54 39 -34 124 -69 180 -75 36 -3 79 -16 112 -34
30 -16 61 -29 68 -29 20 0 85 -35 119 -63 16 -13 65 -36 109 -50 166 -55 241
-77 256 -77 22 0 586 -287 649 -330 25 -17 74 -42 274 -141 96 -48 114 -61
150 -109 22 -30 68 -86 101 -125 221 -253 448 -589 566 -840 56 -120 117 -296
144 -420 10 -44 22 -98 27 -120 l10 -40 24 30 c14 17 56 74 95 128 559 777
866 1658 909 2606 52 1144 -291 2246 -982 3153 -179 235 -491 564 -713 753
-407 346 -871 622 -1381 821 -388 151 -764 243 -1224 300 -129 16 -730 28
-865 18z m1175 -320 c0 -13 -58 -25 -66 -13 -6 10 26 28 48 26 10 -1 18 -7 18
-13z m-2850 -224 c0 -5 -2 -10 -4 -10 -3 0 -8 5 -11 10 -3 6 -1 10 4 10 6 0
11 -4 11 -10z m1160 -20 c0 -5 -2 -10 -4 -10 -3 0 -8 5 -11 10 -3 6 -1 10 4
10 6 0 11 -4 11 -10z m240 -20 c0 -5 -7 -10 -16 -10 -8 0 -12 5 -9 10 3 6 10
10 16 10 5 0 9 -4 9 -10z m285 -1397 c39 -8 80 -16 92 -17 12 0 25 -4 29 -8 4
-5 17 -8 29 -8 12 0 30 -9 40 -20 10 -11 22 -17 26 -14 12 7 59 -45 59 -65 0
-9 10 -21 23 -26 12 -6 21 -18 20 -29 -1 -13 2 -15 9 -8 8 8 24 -3 54 -34 24
-24 47 -44 52 -44 5 0 16 -10 24 -22 13 -19 18 -21 31 -10 18 16 97 6 113 -14
8 -10 19 -11 42 -5 21 6 42 6 62 -2 25 -9 40 -8 78 5 58 21 121 33 147 29 36
-5 149 -44 170 -57 11 -8 30 -14 42 -14 13 0 27 -9 34 -22 7 -13 18 -26 25
-31 18 -10 45 -67 49 -102 2 -16 1 -24 -2 -17 -7 17 -23 15 -23 -3 0 -7 7 -18
16 -23 17 -10 22 -45 10 -77 -5 -13 -5 -16 1 -7 7 9 13 6 23 -13 7 -14 10 -28
7 -32 -4 -3 -7 0 -8 8 0 8 -4 5 -8 -6 -5 -11 -4 -28 1 -37 6 -13 5 -18 -4 -18
-9 0 -9 -3 0 -12 7 -7 12 -19 12 -27 -1 -13 -3 -13 -11 2 -12 20 -31 13 -22
-8 3 -9 1 -21 -5 -28 -12 -14 -13 -77 -2 -77 14 0 19 -87 7 -113 l-12 -25 -42
25 c-35 20 -59 25 -139 29 -53 2 -128 10 -168 18 -172 35 -218 37 -263 12 -45
-25 -103 -37 -124 -25 -17 9 -19 6 -19 -26 0 -19 4 -35 10 -35 5 0 7 -7 4 -15
-5 -11 -10 -13 -19 -5 -20 17 -38 -12 -25 -44 5 -14 14 -26 19 -26 13 0 6
-141 -8 -168 -22 -41 -2 -212 25 -212 7 0 14 -6 17 -14 3 -8 14 -19 25 -25 15
-8 18 -7 17 8 0 9 -9 28 -18 41 -19 28 -21 40 -7 40 6 0 10 -8 11 -17 0 -10 3
-13 5 -6 3 7 13 9 22 6 22 -9 77 -63 77 -77 0 -6 11 -10 24 -8 15 1 30 -7 43
-23 14 -18 27 -24 43 -21 17 3 22 1 18 -10 -4 -10 3 -14 23 -14 20 0 25 -3 16
-9 -10 -6 -7 -10 12 -13 18 -4 26 -1 26 8 0 19 5 18 37 -12 22 -20 35 -25 60
-21 18 3 33 2 33 -4 0 -5 7 -9 15 -9 11 0 13 8 9 30 -9 45 1 63 25 48 25 -15
38 -4 21 17 -10 12 -10 18 0 30 7 8 18 15 24 15 6 0 23 11 38 25 15 14 32 25
37 25 6 0 14 7 19 15 4 9 19 17 33 18 13 1 33 7 44 13 11 6 34 14 51 17 31 6
31 5 42 -46 15 -68 35 -240 35 -295 0 -24 -5 -54 -10 -65 -19 -42 -35 -92 -46
-142 -10 -49 -23 -69 -39 -59 -4 3 -8 0 -8 -5 0 -6 4 -11 10 -11 6 0 6 -9 0
-26 -8 -19 -6 -29 5 -40 21 -21 19 -34 -5 -34 -15 0 -19 -6 -16 -22 2 -13 -5
-39 -15 -58 -24 -44 -24 -50 0 -50 11 0 21 -6 23 -12 6 -18 -18 -95 -43 -141
-11 -21 -19 -44 -16 -51 3 -8 -3 -12 -16 -12 -15 1 -22 -5 -23 -19 -2 -35 -16
-68 -40 -94 -13 -14 -24 -36 -24 -48 0 -12 -5 -25 -11 -29 -7 -4 -9 0 -5 14 8
26 -8 37 -24 17 -9 -10 -9 -15 -1 -15 6 0 11 -9 11 -20 0 -11 -4 -20 -10 -20
-5 0 -10 -14 -10 -31 0 -22 -5 -32 -20 -36 -22 -6 -26 -18 -9 -28 13 -8 -18
-45 -37 -45 -7 0 -17 -7 -22 -16 -6 -10 -14 -14 -22 -9 -13 8 -5 73 11 89 5 6
9 17 9 25 0 10 -7 8 -26 -10 -25 -24 -26 -24 -40 -5 -8 11 -14 26 -14 33 0 7
-8 13 -18 13 -20 0 -46 -42 -51 -81 0 -5 -5 -8 -10 -5 -5 4 -12 -12 -16 -34
-5 -30 -11 -40 -23 -38 -10 2 -16 -3 -14 -9 1 -7 -3 -13 -9 -13 -5 0 -7 -5 -4
-11 4 -6 -2 -13 -14 -16 -12 -3 -21 -11 -21 -18 0 -19 -28 -27 -32 -9 -5 24
-40 -7 -41 -38 -1 -14 -7 -24 -13 -21 -6 2 -23 -10 -37 -26 -30 -36 -52 -41
-42 -10 5 15 2 22 -14 26 -12 3 -21 12 -21 20 0 8 -4 12 -9 9 -5 -3 -7 -16 -5
-29 4 -21 4 -21 -6 2 -8 18 -15 22 -35 17 -20 -5 -25 -3 -25 11 0 15 -2 16
-10 3 -5 -8 -10 -11 -10 -6 0 6 -5 5 -11 -1 -14 -14 -39 -6 -39 13 0 7 -17 18
-38 25 -38 11 -79 60 -66 80 3 5 -6 9 -20 9 -19 0 -24 -4 -20 -15 4 -9 -4 -24
-21 -37 -17 -13 -25 -27 -22 -39 6 -21 5 -21 -17 -13 -8 3 -12 13 -9 22 3 11
2 13 -4 5 -8 -12 -61 -11 -138 1 -22 3 -47 2 -54 -3 -10 -6 -26 -5 -48 4 -27
11 -35 12 -39 2 -2 -7 -24 -14 -49 -15 -45 -2 -51 4 -46 45 2 16 -19 27 -31
15 -11 -11 -68 6 -68 21 0 12 -40 62 -48 60 -4 -1 -7 7 -6 17 0 11 -7 22 -17
25 -9 3 -19 16 -22 28 -3 12 -10 36 -15 54 -8 26 -8 31 4 26 8 -3 14 1 14 8 0
11 3 11 10 -1 8 -13 10 -13 10 1 0 20 -27 33 -34 16 -3 -9 -5 -9 -5 0 -1 6 4
15 9 18 6 3 10 22 10 42 0 30 2 34 15 23 8 -7 15 -9 15 -6 0 11 -23 31 -40 34
-8 2 -19 10 -23 19 -8 12 -11 12 -23 -4 -20 -27 -17 -36 11 -31 17 4 25 1 25
-9 0 -10 -6 -12 -20 -8 -12 4 -20 2 -20 -5 0 -6 -6 -10 -12 -7 -7 2 -12 10
-10 16 3 13 -21 41 -36 41 -5 0 -15 6 -22 14 -6 8 -18 12 -26 9 -18 -7 -33 34
-30 80 2 25 -2 38 -12 42 -11 4 -13 0 -9 -15 3 -11 0 -34 -6 -50 -9 -23 -9
-35 1 -50 16 -26 15 -40 -3 -40 -11 0 -15 13 -16 53 0 28 -3 46 -6 39 -6 -16
-33 31 -33 59 0 11 -4 19 -10 19 -5 0 -10 7 -10 15 0 21 -30 19 -30 -2 -1 -14
-4 -12 -14 7 -10 16 -11 30 -5 42 13 24 11 34 -3 20 -7 -7 -19 -12 -28 -12
-12 1 -11 4 5 16 16 12 17 18 8 33 -6 10 -13 39 -14 64 -2 35 2 52 18 70 16
19 18 26 7 33 -8 5 -17 30 -20 57 -6 41 -5 47 10 41 19 -7 29 13 29 59 0 62
-2 69 -18 63 -18 -7 -21 20 -2 28 9 3 8 8 -3 18 -9 8 -16 35 -18 68 -2 30 -7
57 -12 60 -5 3 -8 12 -8 20 3 52 -3 80 -18 80 -13 0 -14 3 -5 14 13 15 19 71
25 207 2 42 6 82 11 88 4 7 9 36 11 63 2 28 10 58 18 67 9 10 13 32 11 59 -2
23 1 42 6 42 5 0 9 -7 9 -16 0 -8 4 -12 10 -9 6 4 5 13 -2 24 -14 24 6 154 28
175 8 8 12 21 9 29 -3 7 1 20 10 27 8 7 15 19 15 26 0 8 9 14 20 14 12 0 17 5
14 14 -3 8 0 17 6 21 9 6 9 9 -1 15 -9 6 -3 19 25 50 22 24 35 48 32 56 -3 8
1 31 9 50 8 20 10 34 4 34 -6 0 -9 8 -8 18 3 38 -2 62 -13 60 -14 -3 -16 68
-3 99 4 10 9 45 10 79 2 48 8 66 26 86 13 15 40 45 59 67 19 23 39 41 44 41 5
0 24 11 42 25 18 14 39 25 48 25 8 0 18 5 21 10 12 19 69 43 120 49 67 8 155
3 240 -16z m1197 -1174 c34 -9 57 -22 71 -41 11 -15 24 -25 29 -22 4 3 8 -6 8
-20 0 -14 5 -28 10 -31 6 -3 10 -13 10 -21 0 -10 -5 -12 -12 -7 -7 4 -25 6
-39 5 -20 -3 -29 4 -45 35 -10 21 -38 56 -62 79 -23 22 -39 44 -35 48 4 4 9 3
11 -3 2 -5 26 -15 54 -22z m-2258 -55 c9 -8 16 -20 16 -25 0 -13 72 -41 91
-36 21 6 30 -1 52 -40 16 -29 24 -123 11 -123 -19 0 -83 45 -87 61 -6 23 -52
26 -61 3 -9 -23 21 -85 44 -91 38 -10 18 -34 -45 -55 -57 -19 -88 -81 -82
-165 6 -86 32 -127 80 -131 32 -3 37 -7 37 -28 0 -47 17 -64 65 -64 49 0 57
-6 48 -38 -4 -18 -10 -21 -32 -16 -14 4 -36 16 -49 27 -15 14 -25 18 -33 10
-16 -16 46 -76 81 -77 35 -1 45 -21 35 -66 -5 -21 -13 -30 -26 -30 -32 0 -81
25 -125 64 -50 42 -83 124 -114 277 -23 115 -23 122 -11 115 5 -3 12 11 15 32
11 59 67 225 83 244 30 34 -39 94 -98 86 -37 -6 -36 3 5 46 36 39 74 47 100
20z m2651 -274 c20 -39 20 -40 -13 -40 -18 0 -38 -10 -56 -29 l-27 -28 20
-124 c27 -159 27 -159 -10 -297 -45 -172 -87 -243 -172 -297 -15 -10 -30 -15
-33 -13 -3 3 4 49 15 103 17 78 26 101 46 117 14 11 25 29 25 40 0 15 5 19 20
15 46 -12 79 53 80 156 0 35 -6 54 -21 70 -12 12 -32 39 -46 61 -23 35 -24 45
-20 133 4 95 13 118 43 106 7 -3 27 5 44 17 17 12 43 26 58 30 15 5 28 9 29 9
1 1 9 -12 18 -29z m2989 -126 c4 -10 1 -14 -6 -12 -15 5 -23 28 -10 28 5 0 13
-7 16 -16z m-5459 -51 c-5 -32 -7 -86 -6 -120 1 -62 -12 -92 -23 -50 -3 13
-15 34 -26 47 -14 16 -20 37 -20 73 0 42 4 53 31 78 46 43 53 38 44 -28z
m2480 -73 c-9 -41 -17 -33 -9 9 4 17 9 30 11 27 3 -2 2 -19 -2 -36z m-2410
-200 c3 -5 1 -10 -4 -10 -6 0 -11 5 -11 10 0 6 2 10 4 10 3 0 8 -4 11 -10z
m2095 -268 c0 -5 -9 -17 -20 -27 -19 -17 -19 -17 -7 9 12 25 27 35 27 18z
m-2010 -196 c0 -20 -16 -21 -24 -1 -3 8 -12 15 -21 15 -8 0 -15 5 -15 11 0 5
4 8 9 4 5 -3 12 -1 16 5 8 13 35 -13 35 -34z m20 -47 c0 -6 -4 -7 -10 -4 -5 3
-10 11 -10 16 0 6 5 7 10 4 6 -3 10 -11 10 -16z m-23 -41 c-3 -8 -6 -5 -6 6
-1 11 2 17 5 13 3 -3 4 -12 1 -19z m173 -42 c0 -3 -4 -8 -10 -11 -5 -3 -10 -1
-10 4 0 6 5 11 10 11 6 0 10 -2 10 -4z m15 -36 c3 -5 1 -10 -4 -10 -6 0 -11 5
-11 10 0 6 2 10 4 10 3 0 8 -4 11 -10z m-195 -221 c0 -9 14 -35 30 -57 17 -23
30 -46 30 -52 0 -6 8 -34 19 -64 18 -52 13 -95 -10 -81 -5 4 -9 -1 -9 -10 0
-8 7 -18 15 -21 8 -4 12 -10 9 -15 -3 -6 -2 -15 3 -22 5 -7 10 -33 11 -59 1
-36 -2 -48 -13 -48 -8 0 -15 -4 -15 -10 0 -5 7 -10 15 -10 19 0 19 -5 -1 -35
-12 -18 -13 -28 -4 -44 6 -12 15 -21 20 -21 6 0 10 -5 10 -11 0 -7 -12 -10
-28 -7 -16 2 -34 -2 -41 -9 -19 -21 -27 -16 -39 25 -12 43 -30 202 -22 202 3
0 4 89 2 197 -2 137 0 193 8 183 5 -8 10 -22 10 -31z m1610 -80 c0 -5 -7 -9
-15 -9 -15 0 -20 12 -9 23 8 8 24 -1 24 -14z m0 -23 c0 -3 -4 -8 -10 -11 -5
-3 -10 -1 -10 4 0 6 5 11 10 11 6 0 10 -2 10 -4z m-130 -65 c0 -3 -9 -12 -20
-19 -20 -12 -25 -6 -14 22 5 14 34 12 34 -3z m330 -48 c-1 -97 16 -465 26
-548 11 -89 55 -153 79 -115 5 8 12 7 22 -2 8 -6 22 -13 30 -14 32 -5 58 -74
34 -89 -5 -3 -21 -29 -36 -58 -51 -104 -81 -148 -158 -232 -102 -111 -169
-161 -303 -228 -167 -83 -247 -106 -381 -108 -61 0 -119 3 -129 9 -11 5 -50 7
-89 5 -55 -3 -67 -1 -57 9 16 16 15 29 -1 22 -24 -9 -39 20 -26 50 7 14 16 27
21 27 4 1 13 2 19 3 6 0 16 9 23 19 7 9 19 17 27 18 9 0 8 3 -3 7 -13 5 -15
11 -8 22 7 10 13 11 18 5 9 -12 58 -35 75 -35 7 0 5 6 -5 14 -10 7 -15 16 -11
20 3 3 15 -2 26 -11 19 -17 20 -17 8 5 -6 12 -18 23 -26 23 -24 2 -29 4 -44
13 -8 5 -16 4 -21 -3 -5 -9 -11 -8 -24 4 -9 9 -16 13 -16 8 0 -4 -9 -14 -21
-21 -17 -11 -25 -11 -44 2 -31 20 -95 21 -95 2 0 -12 -17 -14 -40 -6 -3 1 -8
2 -12 1 -5 0 -8 8 -8 18 0 11 -4 23 -10 26 -5 3 -10 -1 -10 -9 0 -9 -6 -16
-14 -16 -26 0 -29 -21 -7 -44 12 -12 21 -30 21 -39 0 -9 4 -17 10 -17 5 0 7 7
4 15 -7 17 11 21 21 5 9 -15 38 -12 32 3 -3 8 5 13 22 15 22 1 23 0 9 -9 -20
-11 -24 -29 -7 -29 5 0 7 6 3 13 -4 6 2 3 14 -7 12 -11 22 -25 22 -33 0 -7 5
-13 11 -13 8 0 8 -4 -1 -14 -8 -11 -18 -12 -36 -6 -15 6 -24 6 -24 0 0 -6 -15
-7 -35 -4 -22 3 -35 1 -35 -5 0 -6 9 -11 20 -11 27 0 26 -36 -1 -51 -12 -6
-34 -8 -50 -5 -15 3 -31 1 -34 -3 -6 -10 -109 40 -139 68 -12 10 -31 22 -43
26 -13 3 -23 11 -23 17 0 5 -6 8 -12 6 -7 -3 -24 6 -38 19 -31 28 -44 29 -37
3 8 -30 -18 -50 -56 -44 -90 16 -248 105 -276 157 -7 14 -42 54 -77 91 -44 46
-65 76 -70 101 -3 19 -10 38 -15 40 -4 3 -5 13 -2 22 4 11 2 14 -5 9 -18 -11
-35 33 -28 75 4 24 2 39 -4 39 -5 0 -10 7 -10 16 0 11 6 15 20 11 11 -3 20 -1
20 5 0 5 5 6 11 3 6 -4 9 0 7 10 -5 29 21 29 28 1 6 -25 37 -39 32 -15 -2 6 3
14 11 16 9 4 11 0 7 -13 -7 -23 8 -49 23 -40 6 4 11 1 11 -6 1 -7 8 0 16 16
17 31 20 66 12 159 -4 54 8 88 25 70 4 -3 7 2 8 13 0 11 3 13 6 6 2 -6 9 -10
14 -6 5 3 12 -2 15 -10 3 -9 14 -16 24 -16 10 0 20 -6 23 -14 4 -9 14 -12 26
-9 18 5 21 1 21 -25 0 -22 -6 -31 -22 -37 -14 -4 -18 -8 -10 -12 6 -2 12 -14
12 -26 l0 -21 -16 22 c-16 23 -34 21 -34 -4 0 -8 6 -14 14 -14 8 0 18 -6 22
-12 4 -7 4 -10 -1 -6 -9 9 -35 -36 -35 -60 0 -12 -3 -13 -12 -4 -14 14 -42 16
-33 2 11 -18 -6 -32 -23 -18 -14 12 -14 10 -3 -9 12 -23 31 -31 31 -14 0 5 7
12 16 15 11 4 14 1 9 -13 -7 -24 20 -52 42 -44 9 4 21 -1 29 -11 7 -10 18 -15
24 -11 9 6 9 10 -1 16 -7 4 -10 11 -6 15 3 4 14 1 23 -7 16 -13 16 -12 6 8
-17 31 -15 35 8 23 25 -14 41 -5 33 18 -5 13 -4 15 8 6 15 -11 16 -11 67 1 25
6 32 13 32 31 0 14 6 24 14 24 8 0 21 9 29 20 8 11 17 17 21 12 4 -4 14 2 22
13 12 16 18 17 33 8 16 -10 20 -9 24 6 2 10 -3 23 -14 30 -11 6 -19 16 -19 22
0 7 -8 18 -17 26 -13 10 -15 16 -5 19 6 3 12 12 12 20 0 8 7 14 15 14 8 0 15
7 15 16 0 14 3 14 15 4 8 -7 15 -18 15 -26 0 -7 5 -16 11 -19 14 -9 7 26 -8
43 -13 13 -18 42 -8 42 3 0 17 -12 30 -27 24 -28 48 -26 25 2 -10 12 -9 15 6
15 35 0 46 -15 39 -52 -5 -25 -2 -38 9 -47 28 -23 20 -43 -14 -36 -26 6 -30 4
-30 -14 0 -14 5 -19 15 -15 10 4 15 0 15 -15 0 -12 5 -21 12 -21 9 0 9 -3 0
-12 -19 -19 -15 -30 29 -75 26 -27 53 -45 75 -49 19 -3 37 -11 40 -16 11 -18
54 -28 72 -17 13 8 27 7 56 -5 55 -23 97 -21 103 4 4 16 8 18 19 9 9 -8 14 -8
14 -1 0 6 8 13 18 17 11 3 24 17 30 30 12 26 4 33 -15 14 -8 -8 -19 -5 -42 11
-16 13 -32 29 -35 37 -3 7 -12 13 -21 13 -8 0 -15 9 -15 20 0 11 -6 20 -14 20
-8 0 -23 16 -34 35 -33 54 -12 121 35 112 13 -2 23 0 23 4 0 10 -21 13 -64 10
-20 -2 -27 1 -24 11 3 7 19 13 37 13 17 0 36 7 41 15 8 12 10 12 15 -2 4 -10
15 -20 25 -23 12 -4 16 -12 13 -25 -3 -11 0 -20 6 -20 6 0 11 5 11 10 0 6 9
10 20 10 13 0 20 7 20 20 0 11 3 19 8 19 19 -3 23 2 13 15 -8 10 -9 16 -1 21
5 3 10 1 10 -5 0 -7 7 -5 16 4 8 9 26 16 38 16 13 0 42 14 64 30 43 31 72 38
72 18 0 -7 6 -5 18 4 9 9 28 15 42 13 17 -1 28 5 35 19 6 12 17 21 25 21 8 0
24 9 35 21 11 12 25 19 31 17 19 -6 64 37 61 60 -2 18 3 22 30 22 31 0 62 25
63 52 0 6 16 21 36 32 20 12 38 30 41 41 3 11 13 20 23 20 19 0 61 44 84 89
16 31 41 50 64 51 9 0 13 -15 12 -47z m-1663 -303 c7 0 13 -4 13 -9 0 -5 -12
-7 -27 -5 -33 6 -55 24 -30 24 9 0 17 5 17 10 0 6 -5 10 -11 10 -6 0 -7 5 -2
13 5 8 10 3 17 -15 5 -16 16 -28 23 -28z m-139 -101 l-5 -24 -10 25 c-12 28
-6 47 9 32 5 -5 8 -20 6 -33z m82 -15 c0 -7 -4 -15 -9 -18 -5 -4 -7 3 -4 14 3
12 -1 22 -11 26 -9 3 -13 11 -9 17 7 11 33 -19 33 -39z m37 33 c-9 -24 9 -82
24 -79 11 3 10 -1 -3 -14 -19 -20 -42 -9 -35 17 3 10 1 22 -4 25 -10 6 -12 48
-2 57 11 12 25 7 20 -6z m-78 -64 c-3 -36 2 -43 30 -43 35 0 51 -18 41 -45 -6
-18 -11 -16 -55 28 -27 26 -52 47 -57 47 -4 0 -8 5 -8 11 0 5 5 7 10 4 6 -3
10 -1 10 4 0 6 7 11 16 11 9 0 14 -8 13 -17z m320 -57 c9 -11 6 -12 -14 -8
-14 2 -25 8 -25 13 0 14 26 11 39 -5z m61 10 c0 -3 -4 -8 -10 -11 -5 -3 -10
-1 -10 4 0 6 5 11 10 11 6 0 10 -2 10 -4z m-136 -45 c3 -5 0 -11 -7 -14 -8 -3
-14 1 -14 9 0 16 13 19 21 5z m-149 -11 c3 -5 1 -10 -4 -10 -6 0 -11 5 -11 10
0 6 2 10 4 10 3 0 8 -4 11 -10z m-18 -102 c-3 -8 -6 -5 -6 6 -1 11 2 17 5 13
3 -3 4 -12 1 -19z m136 -28 c3 -11 1 -20 -4 -20 -5 0 -9 2 -9 4 0 2 -3 11 -6
20 -3 9 -2 16 4 16 5 0 12 -9 15 -20z m107 10 c0 -5 -5 -10 -11 -10 -5 0 -7 5
-4 10 3 6 8 10 11 10 2 0 4 -4 4 -10z m210 -81 c0 -11 -4 -17 -10 -14 -5 3
-10 13 -10 21 0 8 5 14 10 14 6 0 10 -9 10 -21z"/>
<path d="M10615 8700 c4 -6 11 -8 16 -5 14 9 11 15 -7 15 -8 0 -12 -5 -9 -10z"/>
<path d="M9128 8475 c-3 -4 -43 -6 -88 -6 -54 0 -92 -5 -110 -14 -16 -8 -41
-15 -56 -15 -33 0 -94 -39 -94 -59 0 -8 -10 -25 -21 -37 -13 -13 -19 -30 -15
-39 7 -20 48 -35 62 -24 14 11 24 1 24 -23 0 -10 -16 -28 -35 -40 -19 -13 -35
-28 -35 -35 0 -6 -7 -19 -16 -28 -14 -13 -14 -20 -4 -45 7 -16 21 -32 31 -35
10 -4 19 -12 19 -20 0 -7 15 -20 34 -29 18 -9 42 -28 51 -43 10 -16 24 -32 32
-36 7 -4 13 -15 13 -23 0 -8 11 -20 25 -26 14 -6 24 -16 22 -22 -7 -19 13 -46
33 -46 11 0 20 -4 20 -9 0 -4 18 -8 40 -8 22 0 47 -6 55 -13 9 -7 27 -10 45
-6 17 3 30 1 30 -4 0 -6 -4 -10 -10 -10 -5 0 -10 -5 -10 -11 0 -6 12 -9 28 -7
19 2 27 8 26 21 -1 12 7 20 27 24 16 3 29 10 29 15 0 5 5 6 10 3 6 -3 10 1 10
9 0 19 30 22 30 4 1 -9 5 -8 13 3 7 9 27 16 45 16 19 0 38 6 43 14 5 8 9 10 9
5 0 -6 6 -3 13 6 6 9 29 21 49 28 21 6 40 16 43 21 13 20 27 8 20 -18 -5 -23
-4 -25 9 -14 9 8 16 20 16 27 0 8 4 14 9 14 10 0 20 40 29 125 5 43 11 59 21
57 9 -2 12 4 8 18 -5 21 16 29 28 10 3 -5 17 -10 31 -10 17 0 24 6 24 19 0 11
-6 22 -12 24 -8 3 -5 6 6 6 12 1 16 6 12 16 -3 8 4 24 16 35 12 11 16 20 10
20 -7 0 -12 7 -12 15 0 8 -12 22 -27 32 -42 27 -54 45 -40 62 10 12 6 13 -28
8 -29 -5 -44 -2 -57 10 -10 9 -21 13 -24 10 -4 -4 -20 5 -37 19 -16 14 -36 23
-43 20 -7 -3 -19 3 -26 12 -16 21 -25 23 -71 12 -20 -4 -39 -4 -42 1 -3 4 -17
3 -31 -3 -17 -8 -28 -9 -32 -2 -4 6 -32 11 -62 12 -30 0 -66 3 -80 7 -14 3
-28 3 -32 0z"/>
<path d="M9770 8280 c0 -5 5 -10 10 -10 6 0 10 5 10 10 0 6 -4 10 -10 10 -5 0
-10 -4 -10 -10z"/>
<path d="M9815 8230 c3 -5 8 -10 11 -10 2 0 4 5 4 10 0 6 -5 10 -11 10 -5 0
-7 -4 -4 -10z"/>
<path d="M9860 7776 c0 -13 -2 -31 -5 -38 -5 -11 46 -78 58 -78 8 0 -7 67 -19
85 -8 11 -14 27 -14 37 0 10 -4 18 -10 18 -5 0 -10 -11 -10 -24z"/>
<path d="M9920 7635 c0 -18 35 -55 53 -55 20 0 20 0 1 21 -20 22 -54 44 -54
34z"/>
<path d="M9526 7535 c-37 -19 -71 -35 -77 -35 -6 0 -24 -9 -40 -21 -25 -18
-30 -18 -34 -5 -3 9 -7 23 -10 32 -3 10 -11 13 -25 9 -15 -5 -18 -3 -14 8 3
10 -3 16 -20 19 -15 3 -23 1 -20 -4 8 -12 -49 -6 -57 6 -10 13 -29 -2 -23 -18
7 -17 -27 -31 -37 -15 -9 15 -30 2 -27 -18 2 -8 -6 -20 -17 -27 -11 -6 -22
-12 -25 -14 -2 -2 2 -8 10 -13 11 -8 9 -9 -9 -4 -18 6 -22 4 -15 -6 7 -12 5
-12 -9 0 -18 14 -47 9 -47 -9 0 -5 8 -10 18 -10 11 -1 7 -6 -13 -17 -16 -9
-36 -25 -44 -36 -11 -15 -15 -16 -22 -6 -6 10 -9 10 -9 2 0 -20 14 -23 51 -10
24 9 33 17 31 30 -2 10 0 17 5 16 4 -1 16 1 25 5 24 11 53 3 53 -14 0 -9 -11
-16 -28 -18 -22 -3 -26 -6 -17 -17 8 -10 8 -15 -1 -20 -6 -4 -14 -4 -18 1 -11
16 -40 12 -39 -5 3 -33 -2 -49 -18 -55 -9 -4 -13 -2 -8 5 4 7 2 9 -7 5 -8 -3
-22 -9 -31 -12 -18 -6 -34 -41 -24 -51 3 -3 -3 -18 -14 -33 -22 -31 -26 -50
-10 -50 6 0 10 -11 10 -25 0 -16 6 -25 16 -25 11 0 14 -6 9 -20 -8 -24 7 -26
29 -4 14 14 15 11 12 -30 -4 -42 -3 -46 20 -52 13 -3 25 -10 25 -15 3 -19 5
-25 17 -47 7 -12 10 -27 7 -32 -8 -13 -3 -12 31 0 22 9 29 7 45 -11 11 -12 19
-26 19 -31 0 -5 4 -7 9 -4 5 3 7 23 4 45 -6 47 7 58 46 38 19 -10 33 -11 39
-5 7 7 16 7 27 0 16 -8 16 -10 -5 -25 -19 -13 -20 -18 -9 -38 7 -13 23 -32 36
-43 18 -13 23 -25 19 -41 -4 -17 1 -27 20 -40 21 -13 25 -23 22 -46 -4 -24 1
-34 27 -54 36 -27 85 -43 85 -27 0 18 54 22 68 4 9 -12 15 -13 24 -4 7 7 22
12 34 12 13 0 26 5 29 10 5 8 11 7 21 -1 11 -9 18 -8 32 5 10 9 23 16 28 16
19 0 94 45 94 57 0 7 27 27 60 45 34 19 58 38 55 45 -3 9 5 11 25 6 17 -3 30
-1 30 4 0 10 28 49 51 70 9 9 32 16 52 18 28 1 33 -1 30 -15 -4 -16 0 -16 43
-5 26 6 55 21 65 33 9 12 21 22 26 22 4 0 13 12 19 28 23 54 24 91 4 141 -15
40 -19 79 -11 110 0 3 13 -6 27 -20 30 -28 52 -72 56 -114 4 -37 35 -47 40
-13 2 14 11 24 23 26 15 2 23 14 31 46 11 49 8 66 -11 66 -8 0 -16 9 -20 20
-3 11 -16 28 -28 38 -26 21 -47 56 -47 77 0 9 -7 18 -15 22 -9 3 -22 18 -30
33 -21 41 -87 107 -115 115 -14 4 -34 13 -45 20 -11 6 -34 14 -52 17 -31 4
-32 3 -35 -36 -4 -56 -27 -58 -79 -6 -42 42 -43 42 -91 32 -37 -7 -50 -6 -59
4 -6 8 -26 14 -43 14 -17 1 -58 7 -91 15 -76 19 -63 21 -139 -20z m-206 -171
c0 -17 26 -24 38 -12 8 8 25 6 58 -7 41 -16 45 -19 31 -30 -10 -7 -17 -18 -17
-24 0 -7 -4 -9 -10 -6 -5 3 -10 -1 -10 -11 0 -20 28 -43 53 -44 9 0 17 -6 17
-14 0 -9 12 -16 27 -18 15 -2 29 -10 31 -18 2 -11 -16 -20 -65 -34 -184 -50
-261 -52 -204 -5 12 10 27 17 31 14 11 -7 58 19 75 41 16 21 20 54 6 54 -5 0
-11 -5 -13 -12 -3 -8 -12 -4 -25 9 -12 12 -31 24 -43 28 -16 5 -19 10 -11 18
18 18 13 25 -16 19 -28 -5 -28 -5 -10 16 11 11 16 25 13 30 -3 6 -3 17 0 26 5
12 9 13 25 3 10 -6 19 -17 19 -23z m751 -61 c10 -18 14 -35 10 -37 -13 -8 0
-58 20 -79 9 -10 22 -37 27 -59 l10 -40 -27 4 c-23 3 -27 1 -23 -14 7 -28 -27
-20 -78 18 -8 6 -35 15 -60 18 -25 4 -66 11 -92 15 -25 4 -52 12 -60 18 -14
11 -44 10 -95 -1 -17 -4 -34 -3 -37 2 -3 6 15 13 40 17 61 9 74 14 74 30 0 21
50 55 79 55 16 0 31 -8 39 -20 7 -12 17 -18 22 -15 6 4 8 10 5 15 -9 14 6 60
19 60 6 0 20 11 31 24 29 36 73 30 96 -11z m-1086 -100 c-17 -40 -38 -59 -44
-42 -2 6 2 15 9 19 7 4 10 15 7 24 -4 10 -1 16 8 16 8 0 15 5 15 10 0 6 5 10
10 10 6 0 4 -16 -5 -37z m335 22 c0 -8 -4 -15 -10 -15 -5 0 -10 7 -10 15 0 8
5 15 10 15 6 0 10 -7 10 -15z m400 -5 c6 -11 8 -20 6 -20 -3 0 -10 9 -16 20
-6 11 -8 20 -6 20 3 0 10 -9 16 -20z m643 -10 c3 -11 1 -18 -4 -14 -5 3 -9 12
-9 20 0 20 7 17 13 -6z m-720 -45 c3 -12 -52 -15 -59 -3 -3 4 -9 6 -14 3 -5
-3 -11 -1 -15 5 -4 7 10 9 39 8 26 -2 47 -7 49 -13z m752 -25 c3 -5 1 -10 -4
-10 -6 0 -11 5 -11 10 0 6 2 10 4 10 3 0 8 -4 11 -10z m-632 -131 c5 -9 7 -28
3 -42 -6 -25 -10 -27 -66 -27 -32 0 -62 5 -65 10 -4 7 -11 7 -18 2 -17 -12
-97 6 -104 24 -8 22 26 43 68 44 30 0 38 -4 43 -22 6 -21 7 -22 17 -5 22 37
102 48 122 16z m98 -20 c18 -34 -20 -51 -62 -28 -20 10 -20 11 -3 30 23 25 51
24 65 -2z m226 -85 c-3 -3 -12 -4 -19 -1 -8 3 -5 6 6 6 11 1 17 -2 13 -5z"/>
<path d="M9314 7319 c-4 -8 -3 -9 5 -5 7 4 15 -2 21 -16 l10 -23 -3 24 c-2 27
-21 39 -33 20z"/>
<path d="M9935 7250 c3 -5 8 -10 11 -10 2 0 4 5 4 10 0 6 -5 10 -11 10 -5 0
-7 -4 -4 -10z"/>
<path d="M10030 7249 c0 -8 -3 -24 -6 -36 -5 -17 -2 -23 10 -23 12 0 14 7 9
33 -7 35 -13 48 -13 26z"/>
<path d="M8640 7481 c0 -6 5 -13 10 -16 6 -3 10 1 10 9 0 9 -4 16 -10 16 -5 0
-10 -4 -10 -9z"/>
<path d="M9105 7380 c-3 -5 -1 -10 4 -10 6 0 11 5 11 10 0 6 -2 10 -4 10 -3 0
-8 -4 -11 -10z"/>
<path d="M8802 7363 c-11 -11 -10 -14 2 -19 9 -3 16 -14 16 -23 -1 -14 -2 -14
-13 -1 -18 22 -57 24 -57 2 0 -9 -9 -23 -20 -29 -10 -7 -22 -29 -26 -50 -3
-21 -13 -43 -21 -50 -10 -8 -12 -19 -7 -35 4 -13 6 -25 5 -27 -2 -2 4 -8 13
-13 9 -5 16 -17 16 -26 0 -25 29 -64 42 -56 7 5 9 -1 5 -15 -7 -29 1 -51 19
-51 9 0 14 11 14 28 0 15 9 53 20 85 22 63 25 87 10 87 -5 0 -1 15 9 34 12 21
17 43 14 58 -5 19 -4 21 8 12 20 -16 49 -14 49 3 0 8 5 11 11 7 7 -4 10 -1 7
7 -3 8 -15 13 -26 11 -17 -2 -22 2 -22 17 0 12 -4 21 -8 21 -5 0 -17 8 -28 18
-17 16 -22 17 -32 5z"/>
<path d="M8610 7251 c0 -6 5 -13 10 -16 6 -3 10 1 10 9 0 9 -4 16 -10 16 -5 0
-10 -4 -10 -9z"/>
<path d="M8863 7222 c-8 -5 -9 -13 -3 -22 7 -12 12 -12 22 -2 14 14 -1 35 -19
24z"/>
<path d="M10626 7202 c-3 -6 -2 -47 3 -61 2 -8 30 34 31 45 0 14 -27 27 -34
16z"/>
<path d="M8631 7164 c0 -11 3 -14 6 -6 3 7 2 16 -1 19 -3 4 -6 -2 -5 -13z"/>
<path d="M8610 7109 c0 -5 5 -7 10 -4 6 3 10 8 10 11 0 2 -4 4 -10 4 -5 0 -10
-5 -10 -11z"/>
<path d="M10527 7089 c-8 -29 -4 -33 22 -24 21 6 30 45 11 45 -5 0 -10 -6 -10
-12 0 -10 -2 -10 -9 0 -6 10 -10 8 -14 -9z"/>
<path d="M8691 7044 c0 -11 3 -14 6 -6 3 7 2 16 -1 19 -3 4 -6 -2 -5 -13z"/>
<path d="M8710 6978 c0 -19 2 -20 10 -8 13 19 13 30 0 30 -5 0 -10 -10 -10
-22z"/>
<path d="M8972 6880 c0 -14 2 -19 5 -12 2 6 2 18 0 25 -3 6 -5 1 -5 -13z"/>
<path d="M8840 6846 c0 -9 5 -16 10 -16 6 0 10 4 10 9 0 6 -4 13 -10 16 -5 3
-10 -1 -10 -9z"/>
<path d="M10501 6758 c0 -10 -5 -18 -11 -18 -5 0 -10 -8 -10 -17 0 -16 1 -16
16 -1 9 8 14 24 11 34 -4 17 -5 17 -6 2z"/>
<path d="M9150 6728 c-19 -15 -21 -21 -10 -28 17 -10 26 -5 40 20 14 27 -1 31
-30 8z"/>
<path d="M9075 6690 c3 -5 10 -10 16 -10 5 0 9 5 9 10 0 6 -7 10 -16 10 -8 0
-12 -4 -9 -10z"/>
<path d="M9005 6580 c3 -5 8 -10 11 -10 2 0 4 5 4 10 0 6 -5 10 -11 10 -5 0
-7 -4 -4 -10z"/>
<path d="M10410 6549 c0 -5 5 -7 10 -4 6 3 10 8 10 11 0 2 -4 4 -10 4 -5 0
-10 -5 -10 -11z"/>
<path d="M8670 6162 c0 -12 19 -26 26 -19 2 2 -2 10 -11 17 -9 8 -15 8 -15 2z"/>
<path d="M8710 6099 c0 -5 5 -7 10 -4 6 3 10 8 10 11 0 2 -4 4 -10 4 -5 0 -10
-5 -10 -11z"/>
<path d="M8680 6071 c0 -11 4 -22 9 -25 5 -3 8 5 7 19 -1 29 -16 34 -16 6z"/>
<path d="M8690 5700 c0 -5 5 -10 10 -10 6 0 10 5 10 10 0 6 -4 10 -10 10 -5 0
-10 -4 -10 -10z"/>
<path d="M9600 5539 c0 -5 5 -7 10 -4 6 3 10 8 10 11 0 2 -4 4 -10 4 -5 0 -10
-5 -10 -11z"/>
<path d="M8530 5511 c0 -6 5 -13 10 -16 6 -3 10 1 10 9 0 9 -4 16 -10 16 -5 0
-10 -4 -10 -9z"/>
<path d="M8670 5444 c0 -17 28 -49 36 -41 4 4 -2 17 -14 30 -12 12 -22 17 -22
11z"/>
<path d="M9392 5379 c2 -6 7 -10 11 -10 4 1 14 1 23 1 8 0 12 5 9 10 -8 13
-48 13 -43 -1z"/>
<path d="M9555 5350 c-4 -6 -10 -8 -15 -5 -4 3 -11 -5 -14 -18 -6 -21 -7 -21
-20 -4 -17 22 -32 22 -39 -2 -4 -16 0 -18 19 -15 13 2 24 0 24 -5 0 -5 8 -9
18 -9 9 0 25 -3 34 -7 24 -10 36 38 15 60 -10 9 -18 11 -22 5z"/>
<path d="M9320 5336 c0 -9 7 -16 16 -16 9 0 14 5 12 12 -6 18 -28 21 -28 4z"/>
<path d="M9405 5341 c-6 -11 33 -36 42 -27 5 5 -21 36 -31 36 -3 0 -7 -4 -11
-9z"/>
<path d="M9530 5270 c0 -5 5 -10 10 -10 6 0 10 5 10 10 0 6 -4 10 -10 10 -5 0
-10 -4 -10 -10z"/>
<path d="M9251 5114 c0 -11 3 -14 6 -6 3 7 2 16 -1 19 -3 4 -6 -2 -5 -13z"/>
<path d="M9370 5011 c0 -5 5 -13 10 -16 6 -3 10 -2 10 4 0 5 -4 13 -10 16 -5
3 -10 2 -10 -4z"/>
<path d="M9595 4940 c3 -5 8 -10 11 -10 2 0 4 5 4 10 0 6 -5 10 -11 10 -5 0
-7 -4 -4 -10z"/>
<path d="M12472 3525 c0 -16 2 -22 5 -12 2 9 2 23 0 30 -3 6 -5 -1 -5 -18z"/>
<path d="M6760 3168 c0 -21 71 -233 82 -243 7 -7 8 -4 5 10 -4 11 -9 34 -12
50 -16 74 -57 195 -65 195 -6 0 -10 -5 -10 -12z"/>
<path d="M6942 3094 c-20 -48 -19 -281 1 -332 14 -37 15 -44 2 -49 -22 -8 -40
11 -54 59 -16 52 -43 104 -73 140 l-23 27 2 -67 c1 -37 6 -82 12 -101 13 -41
6 -55 -19 -41 -32 17 -31 12 5 -41 19 -28 35 -58 35 -65 0 -14 194 -164 211
-164 7 0 -11 72 -33 129 -5 14 -11 62 -13 106 -8 176 -25 383 -33 405 -8 23
-9 22 -20 -6z"/>
<path d="M12498 3073 c-23 -28 -40 -78 -36 -109 3 -27 6 -24 36 33 32 62 40
93 24 93 -5 0 -16 -8 -24 -17z"/>
<path d="M12431 2792 c-10 -33 -77 -271 -100 -359 -5 -18 -5 -33 -1 -33 18 0
155 107 158 124 2 11 -7 28 -22 41 -24 21 -36 55 -18 55 4 0 7 21 8 48 0 26 3
65 6 87 4 25 1 47 -7 58 -10 15 -13 12 -24 -21z"/>
<path d="M7085 2478 c-8 -23 1 -50 20 -60 16 -10 17 -8 12 22 -4 18 -7 36 -7
41 0 14 -20 11 -25 -3z"/>
<path d="M12250 2391 c0 -11 -4 -23 -10 -26 -18 -11 -11 -26 8 -16 45 26 46
29 33 45 -18 22 -31 20 -31 -3z"/>
</g>
</svg>
